<svg height="464pt" viewBox="-104 0 464 464" width="464pt" xmlns="http://www.w3.org/2000/svg"><path d="m32 48h192c17.671875 0 32 14.328125 32 32v352c0 17.671875-14.328125 32-32 32h-192c-17.671875 0-32-14.328125-32-32v-352c0-17.671875 14.328125-32 32-32zm0 0" fill="#ffb655"/><path d="m256 89.121094v342.878906c0 17.671875-14.328125 32-32 32h-192c-17.671875 0-32-14.328125-32-32v-48.398438c101.519531-63.121093 208.238281-158.320312 256-294.480468zm0 0" fill="#ffa733"/><path d="m184 0h-112c-4.417969 0-8 3.582031-8 8v40h128v-40c0-4.417969-3.582031-8-8-8zm0 0" fill="#d1d3d4"/><path d="m64 256h48v128l80-128h-48v-128zm0 0" fill="#ff5023"/></svg>