<svg height="464pt" viewBox="0 0 464 464" width="464pt" xmlns="http://www.w3.org/2000/svg"><path d="m312 80h-312v48h464v-48zm0 0" fill="#787680"/><path d="m40 128h384v272h-384zm0 0" fill="#d1d3d4"/><path d="m424 128v272h-281.601562c100.722656-55.601562 216.160156-143.121094 278.160156-272zm0 0" fill="#bcbec0"/><path d="m424 400h-424v64h464v-64zm0 0" fill="#57565c"/><path d="m216 336 64-64h-32v-64l-64 64h32zm0 0" fill="#ff5023"/><path d="m152 48h-80v32h80zm0 0" fill="#a7a9ac"/><path d="m88 0h48v48h-48zm0 0" fill="#d1d3d4"/><path d="m392 48h-80v32h80zm0 0" fill="#a7a9ac"/><path d="m328 0h48v48h-48zm0 0" fill="#d1d3d4"/><path d="m40 128h384v16h-384zm0 0" fill="#bcbec0"/><g fill="#3e3d42"><path d="m224 400h16v32h-16zm0 0"/><path d="m304 400h16v32h-16zm0 0"/><path d="m384 400h16v32h-16zm0 0"/><path d="m144 400h16v32h-16zm0 0"/><path d="m64 400h16v32h-16zm0 0"/></g><path d="m88 168h48v16h-48zm0 0" fill="#787680"/><path d="m376 168h-16v-16h-16v16h-16v16h16v16h16v-16h16zm0 0" fill="#787680"/></svg>