<svg height="464pt" viewBox="0 -24 464 464" width="464pt" xmlns="http://www.w3.org/2000/svg"><path d="m0 288c0 17.671875 14.328125 32 32 32h400c17.671875 0 32-14.328125 32-32v-32h-464zm0 0" fill="#acabb1"/><path d="m464 32v224h-464v-224c0-17.671875 14.328125-32 32-32h400c17.671875 0 32 14.328125 32 32zm0 0" fill="#96c8ef"/><path d="m464 32v224h-360.960938c99.199219-45.761719 233.519532-127.039062 314.882813-256h14.078125c17.671875 0 32 14.328125 32 32zm0 0" fill="#78b9eb"/><path d="m280 384h-96l8-64h80zm0 0" fill="#898890"/><path d="m152 384v32h160v-32zm0 0" fill="#787680"/><path d="m88 48v64h64v-64zm0 0" fill="#ffd422"/><path d="m88 208h64v-64h-64zm0 0" fill="#ffd422"/><path d="m274 336h-84l2-16h80zm0 0" fill="#787680"/><path d="m416 296c-.535156-.011719-1.070312-.066406-1.601562-.160156-.5-.085938-.984376-.25-1.4375-.480469-.511719-.175781-.996094-.417969-1.441407-.71875-.417969-.296875-.820312-.617187-1.199219-.960937-3.09375-3.15625-3.09375-8.203126 0-11.359376 2.316407-2.238281 5.738282-2.894531 8.71875-1.679687.96875.40625 1.863282.972656 2.640626 1.679687 2.308593 2.289063 3 5.746094 1.753906 8.746094-1.246094 3.003906-4.183594 4.953125-7.433594 4.933594zm0 0" fill="#787680"/><path d="m128 96c-2.121094 0-4.15625-.84375-5.65625-2.34375l-16-16 11.3125-11.3125 10.34375 10.34375 42.34375-42.34375 11.3125 11.3125-48 48c-1.5 1.5-3.535156 2.34375-5.65625 2.34375zm0 0" fill="#ff6243"/><path d="m128 192c-2.121094 0-4.15625-.84375-5.65625-2.34375l-16-16 11.3125-11.3125 10.34375 10.34375 42.34375-42.34375 11.3125 11.3125-48 48c-1.5 1.5-3.535156 2.34375-5.65625 2.34375zm0 0" fill="#ff6243"/><g fill="#ff9811"><path d="m216 96h144v16h-144zm0 0"/><path d="m216 48h96v16h-96zm0 0"/><path d="m216 192h144v16h-144zm0 0"/><path d="m216 144h32v16h-32zm0 0"/><path d="m264 144h96v16h-96zm0 0"/></g></svg>