<svg height="464pt" viewBox="0 -24 464 464" width="464pt" xmlns="http://www.w3.org/2000/svg"><path d="m464 32v224h-464v-224c0-17.671875 14.328125-32 32-32h400c17.671875 0 32 14.328125 32 32zm0 0" fill="#96c8ef"/><path d="m0 288c0 17.671875 14.328125 32 32 32h400c17.671875 0 32-14.328125 32-32v-32h-464zm0 0" fill="#acabb1"/><path d="m464 32v224h-343.921875c98.722656-49.921875 219.761719-132 291.523437-256h20.398438c17.671875 0 32 14.328125 32 32zm0 0" fill="#78b9eb"/><path d="m280 384h-96l8-64h80zm0 0" fill="#898890"/><path d="m152 384v32h160v-32zm0 0" fill="#787680"/><path d="m181.679688 144c-1.085938 3.691406-2.558594 7.257812-4.398438 10.640625l18.640625 18.640625-22.640625 22.640625-18.640625-18.640625c-3.382813 1.839844-6.949219 3.3125-10.640625 4.398438v26.320312h-32v-26.320312c-3.691406-1.085938-7.257812-2.558594-10.640625-4.398438l-18.640625 18.640625-22.640625-22.640625 18.640625-18.640625c-1.839844-3.382813-3.3125-6.949219-4.398438-10.640625h-26.320312v-32h26.320312c1.085938-3.691406 2.558594-7.257812 4.398438-10.640625l-18.640625-18.640625 22.640625-22.640625 18.640625 18.640625c3.382813-1.839844 6.949219-3.3125 10.640625-4.398438v-26.320312h32v26.320312c3.691406 1.085938 7.257812 2.558594 10.640625 4.398438l18.640625-18.640625 22.640625 22.640625-18.640625 18.640625c1.839844 3.382813 3.3125 6.949219 4.398438 10.640625h26.320312v32zm0 0" fill="#ffb655"/><path d="m152 128c0 13.253906-10.746094 24-24 24s-24-10.746094-24-24 10.746094-24 24-24 24 10.746094 24 24zm0 0" fill="#ff6243"/><path d="m274 336h-84l2-16h80zm0 0" fill="#787680"/><path d="m416 296c-2.128906.023438-4.175781-.8125-5.679688-2.320312-1.507812-1.503907-2.34375-3.550782-2.320312-5.679688 0-4.417969 3.582031-8 8-8s8 3.582031 8 8c.023438 2.128906-.8125 4.175781-2.320312 5.679688-1.503907 1.507812-3.550782 2.34375-5.679688 2.320312zm0 0" fill="#898890"/><path d="m237.65625 85.65625-11.3125-11.3125 24-24c1.5-1.5 3.535156-2.34375 5.65625-2.34375h48v16h-44.6875zm0 0" fill="#1e81ce"/><g fill="#e6e7e8"><path d="m320 32h16v16h-16zm0 0"/><path d="m352 32h32v16h-32zm0 0"/><path d="m320 64h64v16h-64zm0 0"/></g><path d="m304 192h-48c-2.121094 0-4.15625-.84375-5.65625-2.34375l-24-24 11.3125-11.3125 21.65625 21.65625h44.6875zm0 0" fill="#1e81ce"/><path d="m320 160h48v16h-48zm0 0" fill="#e6e7e8"/><path d="m320 192h16v16h-16zm0 0" fill="#e6e7e8"/><path d="m352 192h40v16h-40zm0 0" fill="#e6e7e8"/></svg>