<svg height="464pt" viewBox="0 0 464 464.00026" width="464pt" xmlns="http://www.w3.org/2000/svg"><path d="m16 0h432c8.835938 0 16 7.164062 16 16v432c0 8.835938-7.164062 16-16 16h-432c-8.835938 0-16-7.164062-16-16v-432c0-8.835938 7.164062-16 16-16zm0 0" fill="#acabb1"/><path d="m464 47.839844v400.160156c-.027344 8.824219-7.175781 15.972656-16 16h-432c-3.832031.023438-7.535156-1.375-10.398438-3.921875 102.636719-35.597656 385.039063-155.117187 458.398438-412.238281zm0 0" fill="#898890"/><path d="m144 208c.03125 2.679688-.183594 5.359375-.640625 8-3.953125 27.535156-27.542969 47.976562-55.359375 47.976562s-51.40625-20.441406-55.359375-47.976562c-.457031-2.640625-.671875-5.320312-.640625-8-.027344-2.679688.1875-5.359375.640625-8 1.25-9.253906 4.886719-18.023438 10.558594-25.441406 3.121093-4.398438 6.960937-8.238282 11.359375-11.359375 7.433594-5.664063 16.191406-9.324219 25.441406-10.640625 2.648438-.390625 5.324219-.578125 8-.558594 2.679688-.027344 5.359375.183594 8 .640625 9.253906 1.25 18.023438 4.886719 25.441406 10.558594 4.398438 3.121093 8.238282 6.960937 11.359375 11.359375 5.664063 7.433594 9.324219 16.191406 10.640625 25.441406.390625 2.648438.578125 5.324219.558594 8zm0 0" fill="#ffb655"/><path d="m32 48h112v64h-112zm0 0" fill="#ffde55"/><path d="m176 48h112v64h-112zm0 0" fill="#ffde55"/><path d="m320 48h112v64h-112zm0 0" fill="#ffde55"/><path d="m64 296v120h48v-120zm0 0" fill="#5aaae7"/><path d="m160 288c-13.253906 0-24 10.746094-24 24s10.746094 24 24 24 24-10.746094 24-24-10.746094-24-24-24zm0 0" fill="#ff6243"/><path d="m216 320h32v32h-32zm0 0" fill="#e6e7e8"/><path d="m216 384h32v32h-32zm0 0" fill="#ff5023"/><path d="m360 320h32v32h-32zm0 0" fill="#e6e7e8"/><path d="m360 384h32v32h-32zm0 0" fill="#ff5023"/><g fill="#ee8700"><path d="m96 152.640625v23.359375h-16v-23.441406c2.648438-.390625 5.324219-.578125 8-.558594 2.679688-.027344 5.359375.183594 8 .640625zm0 0"/><path d="m71.039062 179.679688-11.359374 11.359374-16.480469-16.480468c3.121093-4.398438 6.960937-8.238282 11.359375-11.359375zm0 0"/><path d="m56 200v16h-23.359375c-.457031-2.640625-.671875-5.320312-.640625-8-.027344-2.679688.1875-5.359375.640625-8zm0 0"/><path d="m144 208c.03125 2.679688-.183594 5.359375-.640625 8h-23.359375v-16h23.441406c.390625 2.648438.578125 5.324219.558594 8zm0 0"/><path d="m132.800781 174.558594-16.480469 16.480468-11.359374-11.359374 16.480468-16.480469c4.398438 3.121093 8.238282 6.960937 11.359375 11.359375zm0 0"/><path d="m80 200h16v40h-16zm0 0"/><path d="m96 152.640625v23.359375h-16v-23.441406c2.648438-.390625 5.324219-.578125 8-.558594 2.679688-.027344 5.359375.183594 8 .640625zm0 0"/><path d="m71.039062 179.679688-11.359374 11.359374-16.480469-16.480468c3.121093-4.398438 6.960937-8.238282 11.359375-11.359375zm0 0"/><path d="m56 200v16h-23.359375c-.457031-2.640625-.671875-5.320312-.640625-8-.027344-2.679688.1875-5.359375.640625-8zm0 0"/><path d="m144 208c.03125 2.679688-.183594 5.359375-.640625 8h-23.359375v-16h23.441406c.390625 2.648438.578125 5.324219.558594 8zm0 0"/><path d="m132.800781 174.558594-16.480469 16.480468-11.359374-11.359374 16.480468-16.480469c4.398438 3.121093 8.238282 6.960937 11.359375 11.359375zm0 0"/></g><path d="m80 200h16v40h-16zm0 0" fill="#787680"/><path d="m288 208c.03125 2.679688-.183594 5.359375-.640625 8-3.953125 27.535156-27.542969 47.976562-55.359375 47.976562s-51.40625-20.441406-55.359375-47.976562c-.457031-2.640625-.671875-5.320312-.640625-8-.027344-2.679688.1875-5.359375.640625-8 1.25-9.253906 4.886719-18.023438 10.558594-25.441406 3.121093-4.398438 6.960937-8.238282 11.359375-11.359375 7.433594-5.664063 16.191406-9.324219 25.441406-10.640625 2.648438-.390625 5.324219-.578125 8-.558594 2.679688-.027344 5.359375.183594 8 .640625 9.253906 1.25 18.023438 4.886719 25.441406 10.558594 4.398438 3.121093 8.238282 6.960937 11.359375 11.359375 5.664063 7.433594 9.324219 16.191406 10.640625 25.441406.390625 2.648438.578125 5.324219.558594 8zm0 0" fill="#ffb655"/><path d="m240 152.640625v23.359375h-16v-23.441406c2.648438-.390625 5.324219-.578125 8-.558594 2.679688-.027344 5.359375.183594 8 .640625zm0 0" fill="#ee8700"/><path d="m215.039062 179.679688-11.359374 11.359374-16.480469-16.480468c3.121093-4.398438 6.960937-8.238282 11.359375-11.359375zm0 0" fill="#ee8700"/><path d="m200 200v16h-23.359375c-.457031-2.640625-.671875-5.320312-.640625-8-.027344-2.679688.1875-5.359375.640625-8zm0 0" fill="#ee8700"/><path d="m288 208c.03125 2.679688-.183594 5.359375-.640625 8h-23.359375v-16h23.441406c.390625 2.648438.578125 5.324219.558594 8zm0 0" fill="#ee8700"/><path d="m276.800781 174.558594-16.480469 16.480468-11.359374-11.359374 16.480468-16.480469c4.398438 3.121093 8.238282 6.960937 11.359375 11.359375zm0 0" fill="#ee8700"/><path d="m224 200h16v40h-16zm0 0" fill="#ee8700"/><path d="m240 152.640625v23.359375h-16v-23.441406c2.648438-.390625 5.324219-.578125 8-.558594 2.679688-.027344 5.359375.183594 8 .640625zm0 0" fill="#ee8700"/><path d="m215.039062 179.679688-11.359374 11.359374-16.480469-16.480468c3.121093-4.398438 6.960937-8.238282 11.359375-11.359375zm0 0" fill="#ee8700"/><path d="m200 200v16h-23.359375c-.457031-2.640625-.671875-5.320312-.640625-8-.027344-2.679688.1875-5.359375.640625-8zm0 0" fill="#ee8700"/><path d="m288 208c.03125 2.679688-.183594 5.359375-.640625 8h-23.359375v-16h23.441406c.390625 2.648438.578125 5.324219.558594 8zm0 0" fill="#ee8700"/><path d="m276.800781 174.558594-16.480469 16.480468-11.359374-11.359374 16.480468-16.480469c4.398438 3.121093 8.238282 6.960937 11.359375 11.359375zm0 0" fill="#ee8700"/><path d="m224 200h16v40h-16zm0 0" fill="#787680"/><path d="m432 208c.03125 2.679688-.183594 5.359375-.640625 8-3.953125 27.535156-27.542969 47.976562-55.359375 47.976562s-51.40625-20.441406-55.359375-47.976562c-.457031-2.640625-.671875-5.320312-.640625-8-.027344-2.679688.1875-5.359375.640625-8 1.25-9.253906 4.886719-18.023438 10.558594-25.441406 3.121093-4.398438 6.960937-8.238282 11.359375-11.359375 7.433594-5.664063 16.191406-9.324219 25.441406-10.640625 2.648438-.390625 5.324219-.578125 8-.558594 2.679688-.027344 5.359375.183594 8 .640625 9.253906 1.25 18.023438 4.886719 25.441406 10.558594 4.398438 3.121093 8.238282 6.960937 11.359375 11.359375 5.664063 7.433594 9.324219 16.191406 10.640625 25.441406.390625 2.648438.578125 5.324219.558594 8zm0 0" fill="#ffb655"/><path d="m384 152.640625v23.359375h-16v-23.441406c2.648438-.390625 5.324219-.578125 8-.558594 2.679688-.027344 5.359375.183594 8 .640625zm0 0" fill="#ee8700"/><path d="m359.039062 179.679688-11.359374 11.359374-16.480469-16.480468c3.121093-4.398438 6.960937-8.238282 11.359375-11.359375zm0 0" fill="#ee8700"/><path d="m344 200v16h-23.359375c-.457031-2.640625-.671875-5.320312-.640625-8-.027344-2.679688.1875-5.359375.640625-8zm0 0" fill="#ee8700"/><path d="m432 208c.03125 2.679688-.183594 5.359375-.640625 8h-23.359375v-16h23.441406c.390625 2.648438.578125 5.324219.558594 8zm0 0" fill="#ee8700"/><path d="m420.800781 174.558594-16.480469 16.480468-11.359374-11.359374 16.480468-16.480469c4.398438 3.121093 8.238282 6.960937 11.359375 11.359375zm0 0" fill="#ee8700"/><path d="m368 200h16v40h-16zm0 0" fill="#ee8700"/><path d="m384 152.640625v23.359375h-16v-23.441406c2.648438-.390625 5.324219-.578125 8-.558594 2.679688-.027344 5.359375.183594 8 .640625zm0 0" fill="#ee8700"/><path d="m359.039062 179.679688-11.359374 11.359374-16.480469-16.480468c3.121093-4.398438 6.960937-8.238282 11.359375-11.359375zm0 0" fill="#ee8700"/><path d="m344 200v16h-23.359375c-.457031-2.640625-.671875-5.320312-.640625-8-.027344-2.679688.1875-5.359375.640625-8zm0 0" fill="#ee8700"/><path d="m432 208c.03125 2.679688-.183594 5.359375-.640625 8h-23.359375v-16h23.441406c.390625 2.648438.578125 5.324219.558594 8zm0 0" fill="#ee8700"/><path d="m420.800781 174.558594-16.480469 16.480468-11.359374-11.359374 16.480468-16.480469c4.398438 3.121093 8.238282 6.960937 11.359375 11.359375zm0 0" fill="#ee8700"/><path d="m368 200h16v40h-16zm0 0" fill="#787680"/><path d="m160 280c-9.910156 0-19.261719 4.59375-25.320312 12.4375-6.058594 7.84375-8.140626 18.050781-5.640626 27.640625l-44.917968 24.929687 7.757812 13.984376 44.960938-24.945313c10.050781 10.574219 25.980468 13.011719 38.734375 5.925781 12.75-7.082031 19.097656-21.894531 15.429687-36.015625-3.664062-14.117187-16.417968-23.972656-31.003906-23.957031zm0 48c-8.835938 0-16-7.164062-16-16s7.164062-16 16-16 16 7.164062 16 16-7.164062 16-16 16zm0 0" fill="#57565c"/></svg>