<svg height="464pt" viewBox="0 -60 464 464" width="464pt" xmlns="http://www.w3.org/2000/svg"><path d="m96 80v112h-96v80h144v-192zm0 0" fill="#ffb655"/><path d="m144 208h320v64h-320zm0 0" fill="#ff9811"/><path d="m144 176h320v32h-320zm0 0" fill="#ff5023"/><path d="m144 0h320v176h-320zm0 0" fill="#ff7956"/><path d="m464 0v176h-256.640625c69.039063-42.878906 140.640625-100.640625 194.402344-176zm0 0" fill="#ff6243"/><path d="m120 296c0 26.507812-21.492188 48-48 48s-48-21.492188-48-48c-.039062-8.4375 2.199219-16.730469 6.480469-24 8.550781-14.851562 24.382812-24.003906 41.519531-24.003906s32.96875 9.152344 41.519531 24.003906c4.28125 7.269531 6.519531 15.5625 6.480469 24zm0 0" fill="#787680"/><path d="m440 296c0 26.507812-21.492188 48-48 48s-48-21.492188-48-48c-.039062-8.4375 2.199219-16.730469 6.480469-24 8.550781-14.851562 24.382812-24.003906 41.519531-24.003906s32.96875 9.152344 41.519531 24.003906c4.28125 7.269531 6.519531 15.5625 6.480469 24zm0 0" fill="#787680"/><path d="m80 296c0 4.417969-3.582031 8-8 8s-8-3.582031-8-8 3.582031-8 8-8 8 3.582031 8 8zm0 0" fill="#57565c"/><path d="m400 296c0 4.417969-3.582031 8-8 8s-8-3.582031-8-8 3.582031-8 8-8 8 3.582031 8 8zm0 0" fill="#57565c"/><path d="m96 80h-24l-72 72v40h96zm0 0" fill="#e6e7e8"/><path d="m200 72h208c8.835938 0 16-7.164062 16-16s-7.164062-16-16-16h-208c-8.835938 0-16 7.164062-16 16s7.164062 16 16 16zm0 0" fill="#cd2a00"/><path d="m200 136h208c8.835938 0 16-7.164062 16-16s-7.164062-16-16-16h-208c-8.835938 0-16 7.164062-16 16s7.164062 16 16 16zm0 0" fill="#cd2a00"/><path d="m88 296c0 8.835938-7.164062 16-16 16s-16-7.164062-16-16 7.164062-16 16-16 16 7.164062 16 16zm0 0" fill="#57565c"/><path d="m408 296c0 8.835938-7.164062 16-16 16s-16-7.164062-16-16 7.164062-16 16-16 16 7.164062 16 16zm0 0" fill="#57565c"/><path d="m0 216h32v16h-32zm0 0" fill="#e6e7e8"/></svg>