<svg height="472pt" viewBox="-3 0 471 472" width="472pt" xmlns="http://www.w3.org/2000/svg"><path d="m240.5 192v280h-72v-32l-32-240v-8zm0 0" fill="#d1d3d4"/><path d="m184.5 440v32h-16v-32l-32-240v-8h16v8zm0 0" fill="#c9cbcc"/><path d="m464.5 312v160h-240v-208h48l16 48h32v-48h48l16 48zm0 0" fill="#ff6243"/><path d="m256.5 344h32v48h-32zm0 0" fill="#e6e7e8"/><path d="m328.5 344h32v48h-32zm0 0" fill="#e6e7e8"/><path d="m464.5 312v160h-192.800781c61.800781-43.335938 115.203125-97.554688 157.601562-160zm0 0" fill="#ff5023"/><path d="m400.5 344h32v48h-32zm0 0" fill="#e6e7e8"/><g fill="#787680"><path d="m120.5 96h-16v-16c0-13.253906 10.746094-24 24-24h32c4.417969 0 8-3.582031 8-8v-16h16v16c0 13.253906-10.746094 24-24 24h-32c-4.417969 0-8 3.582031-8 8zm0 0"/><path d="m80.5 64h-16v-16c0-13.253906 10.746094-24 24-24h32c4.417969 0 8-3.582031 8-8v-16h16v16c0 13.253906-10.746094 24-24 24h-32c-4.417969 0-8 3.582031-8 8zm0 0"/><path d="m224.5 168h-16v-16c0-13.253906 10.746094-24 24-24h32c4.417969 0 8-3.582031 8-8v-16h16v16c0 13.253906-10.746094 24-24 24h-32c-4.417969 0-8 3.582031-8 8zm0 0"/><path d="m184.5 136h-16v-16c0-13.253906 10.746094-24 24-24h32c4.417969 0 8-3.582031 8-8v-16h16v16c0 13.253906-10.746094 24-24 24h-32c-4.417969 0-8 3.582031-8 8zm0 0"/><path d="m272.5 72h16v16h-16zm0 0"/></g><path d="m144.5 200v-80h-112v80l-32 240v32h176v-32zm0 0" fill="#bcbec0"/></svg>