<svg height="472pt" viewBox="0 0 472 472" width="472pt" xmlns="http://www.w3.org/2000/svg"><path d="m264 224h208v248h-208zm0 0" fill="#ffc477"/><path d="m472 224v248h-208v-24.558594c75.679688-54.722656 148.640625-128 192.320312-223.441406zm0 0" fill="#ffb655"/><path d="m136 248h128v224h-128zm0 0" fill="#ffa733"/><path d="m8 280h128v192h-128zm0 0" fill="#ee8700"/><path d="m424 192h-112v32h112zm0 0" fill="#acabb1"/><path d="m328 112h80v80h-80zm0 0" fill="#d1d3d4"/><path d="m176 168h48v80h-48zm0 0" fill="#d1d3d4"/><path d="m48 200h48v80h-48zm0 0" fill="#d1d3d4"/><path d="m200 392c-17.671875 0-32 14.328125-32 32v48h64v-48c0-17.671875-14.328125-32-32-32zm0 0" fill="#898890"/><path d="m168 312h64v32h-64zm0 0" fill="#d1d3d4"/><path d="m72 408c-17.671875 0-32 14.328125-32 32v32h64v-32c0-17.671875-14.328125-32-32-32zm0 0" fill="#787680"/><path d="m40 328h64v32h-64zm0 0" fill="#d1d3d4"/><path d="m304 392h128v80h-128zm0 0" fill="#acabb1"/><path d="m304 296h48v32h-48zm0 0" fill="#d1d3d4"/><path d="m384 296h48v32h-48zm0 0" fill="#d1d3d4"/><path d="m120 280h16v192h-16zm0 0" fill="#d47800"/><path d="m248 248h16v224h-16zm0 0" fill="#ff9811"/><g fill="#57565c"><path d="m400 56h-16v-16c0-4.417969-3.582031-8-8-8h-32c-13.253906 0-24-10.746094-24-24v-8h16v8c0 4.417969 3.582031 8 8 8h32c13.253906 0 24 10.746094 24 24zm0 0"/><path d="m352 88h-16v-16c0-4.417969-3.582031-8-8-8h-32c-13.253906 0-24-10.746094-24-24v-16h16v16c0 4.417969 3.582031 8 8 8h32c13.253906 0 24 10.746094 24 24zm0 0"/><path d="m208 144h-16v-16c0-4.417969-3.582031-8-8-8h-32c-13.253906 0-24-10.746094-24-24v-16h16v16c0 4.417969 3.582031 8 8 8h32c13.253906 0 24 10.746094 24 24zm0 0"/><path d="m80 176h-16v-16c0-4.417969-3.582031-8-8-8h-32c-13.253906 0-24-10.746094-24-24v-16h16v16c0 4.417969 3.582031 8 8 8h32c13.253906 0 24 10.746094 24 24zm0 0"/><path d="m384 72h16v16h-16zm0 0"/></g></svg>