<svg height="464pt" viewBox="-96 0 464 464" width="464pt" xmlns="http://www.w3.org/2000/svg"><path d="m240 64v-64h-240v64zm0 0" fill="#787680"/><path d="m208 128v-64h-192v64zm0 0" fill="#acabb1"/><path d="m88 328v-48h-80v48zm0 0" fill="#787680"/><path d="m32 128h32v152h-32zm0 0" fill="#acabb1"/><path d="m32 328h32v104h-32zm0 0" fill="#acabb1"/><path d="m32 432h-32v32h272v-32zm0 0" fill="#57565c"/><path d="m152 96c-17.671875 0-32 14.328125-32 32s14.328125 32 32 32 32-14.328125 32-32-14.328125-32-32-32zm0 0" fill="#ee8700"/><path d="m136 155.679688v52.320312l8 16h16l8-16v-52.320312c-9.890625 5.761718-22.109375 5.761718-32 0zm0 0" fill="#ffa733"/><path d="m88 296h128v24h-128zm0 0" fill="#57565c"/><g fill="#898890"><path d="m16 64h192v16h-192zm0 0"/><path d="m32 128h32v16h-32zm0 0"/><path d="m32 328h32v16h-32zm0 0"/></g><path d="m144 224h16v32h-16zm0 0" fill="#cc7400"/><path d="m168 176h64v16h-64zm0 0" fill="#cc7400"/><path d="m152 136c-1.039062.011719-2.074219-.175781-3.039062-.558594-.957032-.464844-1.84375-1.058594-2.640626-1.761718-1.503906-1.503907-2.339843-3.550782-2.320312-5.679688-.019531-3.25 1.929688-6.1875 4.933594-7.433594 3-1.246094 6.457031-.554687 8.746094 1.753906.722656.765626 1.292968 1.660157 1.679687 2.640626 1.054687 2.460937.796875 5.285156-.6875 7.511718-1.484375 2.226563-3.996094 3.554688-6.671875 3.527344zm0 0" fill="#57565c"/></svg>