<svg height="464pt" viewBox="0 0 464 464" width="464pt" xmlns="http://www.w3.org/2000/svg"><path d="m464 232c0 128.128906-103.871094 232-232 232s-232-103.871094-232-232 103.871094-232 232-232 232 103.871094 232 232zm0 0" fill="#ff9478"/><path d="m280 232c.023438 2.953125-.246094 5.898438-.800781 8.800781-3.304688 17.332031-15.78125 31.492188-32.558594 36.960938-4.738281 1.480469-9.675781 2.234375-14.640625 2.238281-23.316406-.074219-43.210938-16.894531-47.15625-39.878906-3.945312-22.980469 9.199219-45.472656 31.15625-53.320313 5.128906-1.867187 10.542969-2.816406 16-2.800781 26.488281.046875 47.953125 21.511719 48 48zm0 0" fill="#898890"/><path d="m248 232c0 8.835938-7.164062 16-16 16s-16-7.164062-16-16 7.164062-16 16-16 16 7.164062 16 16zm0 0" fill="#ee8700"/><path d="m264.320312 196.558594c10.394532-18.480469 15.800782-39.351563 15.679688-60.558594 0-53.039062-33.039062-96-64-96v146.800781c5.128906-1.867187 10.542969-2.816406 16-2.800781 11.972656-.046875 23.519531 4.441406 32.320312 12.558594zm0 0" fill="#e6e7e8"/><path d="m184 232c.003906-3.445312.378906-6.878906 1.121094-10.238281-21.1875.21875-41.949219 5.953125-60.242188 16.636719-4.128906 2.421874-8.117187 5.074218-11.941406 7.945312-13.25 9.679688-24.375 21.96875-32.691406 36.113281-12.429688 21.597657-15.269532 44.214844-6.484375 59.382813l28.503906-16.457032 34.839844-20.117187 63.695312-36.800781c-10.648437-9.125-16.785156-22.441406-16.800781-36.464844zm0 0" fill="#e6e7e8"/><path d="m246.640625 277.761719c10.785156 18.210937 26.109375 33.316406 44.480469 43.839843 45.917968 26.476563 99.679687 19.359376 115.117187-7.441406l-127.039062-73.359375c-3.304688 17.332031-15.78125 31.492188-32.558594 36.960938zm0 0" fill="#e6e7e8"/><g fill="#ff6243"><path d="m232 400c-81.132812.0625-150.71875-57.871094-165.367188-137.675781-14.644531-79.800781 29.835938-158.667969 105.703126-187.421875l5.679687 14.953125c-53.289063 20.464843-90.621094 69.0625-96.65625 125.828125s20.242187 112.128906 68.039063 143.339844c47.800781 31.210937 109.054687 33.007812 158.601562 4.65625l8 13.839843c-25.542969 14.734375-54.511719 22.488281-84 22.480469zm0 0"/><path d="m396.59375 265.839844-15.683594-3.199219c13.125-64.15625-16.234375-129.515625-72.910156-162.320313l8-13.839843c62.628906 36.242187 95.082031 108.464843 80.59375 179.359375zm0 0"/><path d="m232 360c-58.585938.019531-109.707031-39.742188-124.113281-96.527344-14.402344-56.789062 11.585937-116.109375 63.097656-144.015625l7.640625 14.054688c-51.460938 27.710937-72.960938 90.332031-49.378906 143.808593 23.585937 53.476563 84.328125 79.824219 139.488281 60.511719l5.242187 15.128907c-13.5 4.671874-27.691406 7.054687-41.976562 7.039062zm0 0"/><path d="m360 232h-16c-.019531-31.871094-13.59375-62.226562-37.335938-83.488281l10.671876-11.917969c27.132812 24.292969 42.644531 58.988281 42.664062 95.40625zm0 0"/></g></svg>