<svg height="472pt" viewBox="-3 0 471 472" width="472pt" xmlns="http://www.w3.org/2000/svg"><path d="m328.5 280v192h-120v-152l24-40 8-96h80l3.199219 38.160156zm0 0" fill="#d1d3d4"/><path d="m176.5 256v216h-176v-216l24-40 8-96h112l8 96 8.238281 13.679688zm0 0" fill="#bcbec0"/><path d="m328.5 280v192h-120v-75.601562c50.015625-49.503907 89.238281-108.828126 115.199219-174.238282zm0 0" fill="#bcbec0"/><path d="m264.5 344v128h176v-128h24l-112-80-23.519531 16.800781-88.480469 63.199219zm0 0" fill="#ffb655"/><path d="m296.5 440h112v32h-112zm0 0" fill="#ff6243"/><path d="m296.5 376h112v32h-112zm0 0" fill="#ff6243"/><path d="m296.5 408h112v32h-112zm0 0" fill="#ff9478"/><path d="m176.5 256v216h-176v-31.519531c65.359375-54.402344 124.878906-123.839844 160.238281-210.800781zm0 0" fill="#a7a9ac"/><g fill="#787680"><path d="m120.5 96h-16v-16c0-13.253906 10.746094-24 24-24h32c4.417969 0 8-3.582031 8-8v-16h16v16c0 13.253906-10.746094 24-24 24h-32c-4.417969 0-8 3.582031-8 8zm0 0"/><path d="m80.5 64h-16v-16c0-13.253906 10.746094-24 24-24h32c4.417969 0 8-3.582031 8-8v-16h16v16c0 13.253906-10.746094 24-24 24h-32c-4.417969 0-8 3.582031-8 8zm0 0"/><path d="m296.5 160h-16v-16c0-13.253906 10.746094-24 24-24h32c4.417969 0 8-3.582031 8-8v-16h16v16c0 13.253906-10.746094 24-24 24h-32c-4.417969 0-8 3.582031-8 8zm0 0"/><path d="m256.5 128h-16v-16c0-13.253906 10.746094-24 24-24h32c4.417969 0 8-3.582031 8-8v-16h16v16c0 13.253906-10.746094 24-24 24h-32c-4.417969 0-8 3.582031-8 8zm0 0"/><path d="m344.5 64h16v16h-16zm0 0"/></g></svg>