<svg height="464pt" viewBox="0 -11 464 463" width="464pt" xmlns="http://www.w3.org/2000/svg"><path d="m206.480469 136.5c-2.246094 12.136719-7.015625 23.664062-14 33.839844l23.679687 23.679687-22.640625 22.640625-23.679687-23.679687c-10.175782 6.984375-21.703125 11.753906-33.839844 14v33.519531h-32v-33.519531c-12.136719-2.246094-23.664062-7.015625-33.839844-14l-23.679687 23.679687-22.640625-22.640625 23.679687-23.679687c-6.984375-10.175782-11.753906-21.703125-14-33.839844h-33.519531v-32h33.519531c2.246094-12.136719 7.015625-23.664062 14-33.839844l-23.679687-23.679687 22.640625-22.640625 23.679687 23.679687c10.175782-6.984375 21.703125-11.753906 33.839844-14v-33.519531h32v33.519531c12.136719 2.246094 23.664062 7.015625 33.839844 14l23.679687-23.679687 22.640625 22.640625-23.679687 23.679687c6.984375 10.175782 11.753906 21.703125 14 33.839844h33.519531v32zm0 0" fill="#ffa733"/><path d="m176 120.5c0 30.929688-25.070312 56-56 56s-56-25.070312-56-56 25.070312-56 56-56 56 25.070312 56 56zm0 0" fill="#e6e7e8"/><path d="m136 120.5c0 8.835938-7.164062 16-16 16s-16-7.164062-16-16 7.164062-16 16-16 16 7.164062 16 16zm0 0" fill="#ff6243"/><path d="m277.679688 376.5c-1.085938 3.691406-2.558594 7.257812-4.398438 10.640625l18.640625 18.640625-22.640625 22.640625-18.640625-18.640625c-3.382813 1.839844-6.949219 3.3125-10.640625 4.398438v26.320312h-32v-26.320312c-3.691406-1.085938-7.257812-2.558594-10.640625-4.398438l-18.640625 18.640625-22.640625-22.640625 18.640625-18.640625c-1.839844-3.382813-3.3125-6.949219-4.398438-10.640625h-26.320312v-32h26.320312c1.085938-3.691406 2.558594-7.257812 4.398438-10.640625l-18.640625-18.640625 22.640625-22.640625 18.640625 18.640625c3.382813-1.839844 6.949219-3.3125 10.640625-4.398438v-26.320312h32v26.320312c3.691406 1.085938 7.257812 2.558594 10.640625 4.398438l18.640625-18.640625 22.640625 22.640625-18.640625 18.640625c1.839844 3.382813 3.3125 6.949219 4.398438 10.640625h26.320312v32zm0 0" fill="#ffd422"/><path d="m248 360.5c0 13.253906-10.746094 24-24 24s-24-10.746094-24-24 10.746094-24 24-24 24 10.746094 24 24zm0 0" fill="#ff5023"/><path d="m429.921875 208.5c-1.515625 5.773438-3.804687 11.316406-6.800781 16.480469l24.078125 24.078125-22.640625 22.640625-24.078125-24.078125c-5.164063 2.996094-10.707031 5.285156-16.480469 6.800781v34.078125h-32v-34.078125c-5.773438-1.515625-11.316406-3.804687-16.480469-6.800781l-24.078125 24.078125-22.640625-22.640625 24.078125-24.078125c-2.996094-5.164063-5.285156-10.707031-6.800781-16.480469h-34.078125v-32h34.078125c1.515625-5.773438 3.804687-11.316406 6.800781-16.480469l-24.078125-24.078125 22.640625-22.640625 24.078125 24.078125c5.164063-2.996094 10.707031-5.285156 16.480469-6.800781v-34.078125h32v34.078125c5.773438 1.515625 11.316406 3.804687 16.480469 6.800781l24.078125-24.078125 22.640625 22.640625-24.078125 24.078125c2.996094 5.164063 5.285156 10.707031 6.800781 16.480469h34.078125v32zm0 0" fill="#ff6243"/><path d="m392 192.5c0 13.253906-10.746094 24-24 24s-24-10.746094-24-24 10.746094-24 24-24 24 10.746094 24 24zm0 0" fill="#ffa733"/></svg>