<svg height="464pt" viewBox="0 -80 464 464" width="464pt" xmlns="http://www.w3.org/2000/svg"><path d="m107.550781 70.296875c-12.496093-12.496094-32.757812-12.496094-45.253906 0s-12.496094 32.757813 0 45.253906l7.519531 7.519531c-24.644531 34.003907-37.882812 74.9375-37.816406 116.929688h146.398438c-15.015626-16.730469-21.347657-39.519531-17.105469-61.597656 4.238281-22.078125 18.558593-40.90625 38.707031-50.882813v-84.960937c-30.675781 4.949218-59.765625 17.027344-84.929688 35.257812zm0 0" fill="#ffc477"/><path d="m296.480469 224c8.5-17.097656 9.851562-36.875 3.761719-54.972656-6.09375-18.097656-19.132813-33.03125-36.242188-41.507813v-84.960937c30.691406 4.949218 59.792969 17.035156 84.960938 35.28125l7.519531-7.519532c7.929687-8.75 20.03125-12.425781 31.488281-9.554687 11.453125 2.867187 20.398438 11.8125 23.265625 23.265625 2.871094 11.457031-.804687 23.558594-9.554687 31.488281l-7.519532 7.519531c21.46875 29.582032 34.34375 64.523438 37.199219 100.960938.402344 5.28125.640625 10.640625.640625 16h-146.398438c4.34375-4.808594 8.003907-10.191406 10.878907-16zm0 0" fill="#ffc477"/><path d="m432 240h-400c-17.671875 0-32 14.328125-32 32s14.328125 32 32 32h400c17.671875 0 32-14.328125 32-32s-14.328125-32-32-32zm0 0" fill="#ffa733"/><path d="m264 127.519531v-95.519531c0-17.671875-14.328125-32-32-32s-32 14.328125-32 32v95.519531c9.601562-4.800781 54.398438-4.800781 64 0zm0 0" fill="#ffa733"/><path d="m32 240h400c0-5.359375-.238281-10.71875-.640625-16h-398.71875zm0 0" fill="#ffb655"/><path d="m304 192c.019531 32.195312-21.320312 60.496094-52.277344 69.332031-30.960937 8.832031-64.023437-3.945312-80.996094-31.304687-16.96875-27.359375-13.730468-62.65625 7.9375-86.46875 21.664063-23.8125 56.5-30.359375 85.335938-16.039063 24.554688 12.089844 40.078125 37.109375 40 64.480469zm0 0" fill="#ff6243"/><path d="m272 192c0 22.089844-17.910156 40-40 40s-40-17.910156-40-40 17.910156-40 40-40 40 17.910156 40 40zm0 0" fill="#e6e7e8"/><g fill="#ffa733"><path d="m92.6875 157.257812-34.777344-34.777343c-15.132812-14.597657-16.855468-38.242188-4-54.878907 7.164063-8.738281 17.6875-14.046874 28.972656-14.609374 11.289063-.5625 22.285157 3.667968 30.285157 11.648437l38.480469 38.480469c3.121093 3.121094 3.121093 8.1875 0 11.3125-3.125 3.121094-8.1875 3.121094-11.3125 0l-37.777344-37.816406c-8.109375-8.417969-21.019532-9.96875-30.894532-3.722657-5.996093 3.992188-9.890624 10.457031-10.609374 17.625-.71875 7.164063 1.8125 14.277344 6.898437 19.375l36.046875 36.050781c3.125 3.121094 3.125 8.1875 0 11.3125-3.125 3.121094-8.1875 3.121094-11.3125 0zm0 0"/><path d="m360 157.257812c-3.125-3.125-3.125-8.191406 0-11.3125l35.390625-35.394531c8.417969-8.113281 9.96875-21.027343 3.714844-30.902343-3.996094-5.992188-10.460938-9.878907-17.628907-10.597657-7.164062-.714843-14.273437 1.816407-19.371093 6.902344l-38.472657 38.445313c-3.125 3.125-8.1875 3.125-11.3125 0-3.125-3.121094-3.125-8.1875 0-11.308594l37.222657-37.226563c14.605469-15.113281 38.246093-16.816406 54.863281-3.953125 8.742188 7.167969 14.046875 17.691406 14.609375 28.976563.5625 11.289062-3.667969 22.289062-11.648437 30.289062l-36.046876 36.046875c-1.496093 1.507813-3.53125 2.359375-5.652343 2.363282-2.125.007812-4.164063-.832032-5.667969-2.328126zm0 0"/></g></svg>