<svg height="464pt" viewBox="-48 0 464 464" width="464pt" xmlns="http://www.w3.org/2000/svg"><path d="m0 0h368v368h-368zm0 0" fill="#acabb1"/><path d="m32 32h304v96h-304zm0 0" fill="#ffde55"/><path d="m24 368h320v96h-320zm0 0" fill="#898890"/><path d="m312 168h-256c-13.253906 0-24 10.746094-24 24s10.746094 24 24 24h256c13.253906 0 24-10.746094 24-24s-10.746094-24-24-24zm0 0" fill="#ffb655"/><path d="m136 392h32v48h-32zm0 0" fill="#ff7956"/><path d="m72 392h32v48h-32zm0 0" fill="#e6e7e8"/><path d="m200 392h32v48h-32zm0 0" fill="#e6e7e8"/><path d="m264 392h32v48h-32zm0 0" fill="#ff7956"/><path d="m24 368h320v16h-320zm0 0" fill="#787680"/><path d="m336 32v96h-175.921875c42.050781-27.777344 81.015625-59.960938 116.242187-96zm0 0" fill="#ffd422"/><path d="m168 72h32v16h-32zm0 0" fill="#ff9811"/><path d="m216 72h32v16h-32zm0 0" fill="#ff9811"/><path d="m120 72h32v16h-32zm0 0" fill="#ff9811"/><g fill="#57565c"><path d="m56 184h256v16h-256zm0 0"/><path d="m176 248h16v96h-16zm0 0"/><path d="m208 248h16v96h-16zm0 0"/><path d="m240 248h16v96h-16zm0 0"/><path d="m272 248h16v96h-16zm0 0"/><path d="m304 248h16v96h-16zm0 0"/><path d="m144 248h16v96h-16zm0 0"/><path d="m112 248h16v96h-16zm0 0"/><path d="m80 248h16v96h-16zm0 0"/><path d="m48 248h16v96h-16zm0 0"/></g></svg>