<svg height="464pt" viewBox="-96 0 464 464" width="464pt" xmlns="http://www.w3.org/2000/svg"><path d="m272 8c0-4.417969-3.582031-8-8-8h-256c-4.417969 0-8 3.582031-8 8v200l48 16-24 144v88c0 4.417969 3.582031 8 8 8h208c4.417969 0 8-3.582031 8-8v-88l-24-144 48-16zm-24 184h-224v-168h224zm0 0" fill="#acabb1"/><path d="m160 248c0 13.253906-10.746094 24-24 24s-24-10.746094-24-24 10.746094-24 24-24 24 10.746094 24 24zm0 0" fill="#ff5023"/><path d="m200 368c0 35.347656-28.652344 64-64 64s-64-28.652344-64-64 28.652344-64 64-64 64 28.652344 64 64zm0 0" fill="#ffa733"/><path d="m24 24h224v168h-224zm0 0" fill="#ffde55"/><path d="m248 24v168h-187.359375c60.65625-45.769531 111.914063-102.8125 150.960937-168zm0 0" fill="#ffd422"/><path d="m136 408c-4.417969 0-8-3.582031-8-8v-64c0-4.417969 3.582031-8 8-8s8 3.582031 8 8v64c0 4.417969-3.582031 8-8 8zm0 0" fill="#e6e7e8"/><path d="m204.046875 68.359375c-.070313-.070313-.09375-.167969-.167969-.238281-.070312-.074219-.167968-.097656-.238281-.167969-37.394531-37.269531-97.886719-37.269531-135.28125 0-.070313.070313-.167969.09375-.238281.167969-.074219.070312-.097656.167968-.167969.238281-17.914063 17.953125-27.96875 42.28125-27.953125 67.640625 0 4.417969 3.582031 8 8 8h16c4.417969 0 8-3.582031 8-8s-3.582031-8-8-8h-7.59375c1.566406-15.632812 7.722656-30.449219 17.691406-42.59375l5.335938 5.335938c3.136718 3.035156 8.128906 2.988281 11.214844-.09375 3.082031-3.085938 3.128906-8.078126.09375-11.214844l-5.335938-5.335938c12.144531-9.96875 26.960938-16.125 42.59375-17.691406v7.59375c0 4.417969 3.582031 8 8 8s8-3.582031 8-8v-7.59375c15.632812 1.566406 30.449219 7.722656 42.59375 17.691406l-5.335938 5.335938c-2.082031 2.007812-2.914062 4.980468-2.183593 7.777344.730469 2.796874 2.917969 4.984374 5.714843 5.714843 2.796876.730469 5.769532-.101562 7.777344-2.183593l5.335938-5.335938c9.96875 12.144531 16.125 26.960938 17.691406 42.59375h-7.59375c-4.417969 0-8 3.582031-8 8s3.582031 8 8 8h16c4.417969 0 8-3.582031 8-8 .015625-25.359375-10.039062-49.6875-27.953125-67.640625zm0 0" fill="#ff9811"/><path d="m136 160c-4.417969 0-8-3.582031-8-8v-48c0-4.417969 3.582031-8 8-8s8 3.582031 8 8v48c0 4.417969-3.582031 8-8 8zm0 0" fill="#acabb1"/></svg>