<svg height="464pt" viewBox="0 -120 464 464" width="464pt" xmlns="http://www.w3.org/2000/svg"><path d="m72 0h304c4.417969 0 8 3.582031 8 8v208c0 4.417969-3.582031 8-8 8h-304c-4.417969 0-8-3.582031-8-8v-208c0-4.417969 3.582031-8 8-8zm0 0" fill="#acabb1"/><path d="m160 64c0 17.671875-14.328125 32-32 32s-32-14.328125-32-32 14.328125-32 32-32 32 14.328125 32 32zm0 0" fill="#ff5023"/><path d="m160 160c0 17.671875-14.328125 32-32 32s-32-14.328125-32-32 14.328125-32 32-32 32 14.328125 32 32zm0 0" fill="#ffde55"/><path d="m192 56h160v112h-160zm0 0" fill="#ffb655"/><path d="m224 80h32v64h-32zm0 0" fill="#f1f2f2"/><path d="m288 80h32v64h-32zm0 0" fill="#78b9eb"/><path d="m424 32h40v160h-40zm0 0" fill="#c6c5ca"/><path d="m384 32h40v160h-40zm0 0" fill="#898890"/><path d="m32 32h32v160h-32zm0 0" fill="#898890"/><path d="m0 32h32v160h-32zm0 0" fill="#c6c5ca"/><g fill="#787680"><path d="m384 32h16v160h-16zm0 0"/><path d="m48 32h16v160h-16zm0 0"/></g></svg>