<svg height="464pt" viewBox="-16 0 464 464" width="464pt" xmlns="http://www.w3.org/2000/svg"><path d="m432 32v-32h-432v32zm0 0" fill="#57565c"/><path d="m32 32h368v352h-368zm0 0" fill="#898890"/><path d="m64 64h304v96h-304zm0 0" fill="#ffde55"/><g fill="#e6e7e8"><path d="m64 192h64v64h-64zm0 0"/><path d="m184 192h64v64h-64zm0 0"/><path d="m304 192h64v64h-64zm0 0"/></g><path d="m64 288h64v64h-64zm0 0" fill="#ff6243"/><path d="m184 288h64v64h-64zm0 0" fill="#ff6243"/><path d="m304 288h64v64h-64zm0 0" fill="#ff6243"/><path d="m120 384h192v80h-192zm0 0" fill="#57565c"/><path d="m32 32h368v16h-368zm0 0" fill="#787680"/><path d="m120 384h192v16h-192zm0 0" fill="#3e3d42"/><path d="m368 64v96h-217.601562c49.679687-27.085938 96.410156-59.257812 139.441406-96zm0 0" fill="#ffd422"/><path d="m200 104h32v16h-32zm0 0" fill="#ff9811"/><path d="m248 104h32v16h-32zm0 0" fill="#ff9811"/><path d="m152 104h32v16h-32zm0 0" fill="#ff9811"/></svg>