<svg height="464pt" viewBox="-31 0 463 464" width="464pt" xmlns="http://www.w3.org/2000/svg"><path d="m400.5 240v8c0 4.417969-3.582031 8-8 8h-24v184h-336v-184h-24c-4.417969 0-8-3.582031-8-8v-8c0-4.417969 3.582031-8 8-8h24v-176h336v176h24c4.417969 0 8 3.582031 8 8zm0 0" fill="#ffb655"/><path d="m400.5 240v8c0 4.417969-3.582031 8-8 8h-24v184h-336v-16.078125c115.519531-55.84375 269.039062-157.363281 336-321.761719v129.839844h24c4.417969 0 8 3.582031 8 8zm0 0" fill="#ffa733"/><g fill="#ff5023"><path d="m216.5 248c0 8.835938-7.164062 16-16 16s-16-7.164062-16-16 7.164062-16 16-16 16 7.164062 16 16zm0 0"/><path d="m146.683594 256.28125c-6.859375-25.605469 8.332031-51.921875 33.9375-58.785156l-14.519532-54.097656c-55.480468 14.867187-88.40625 71.898437-73.539062 127.378906zm0 0"/><path d="m254.316406 256.28125 54.09375 14.496094c14.871094-55.472656-18.039062-112.5-73.511718-127.378906l-14.496094 54.097656c25.59375 6.875 40.773437 33.1875 33.914062 58.785156zm0 0"/><path d="m166.554688 289.945312-39.589844 39.589844c40.613281 40.609375 106.457031 40.609375 147.070312 0l-39.589844-39.589844c-18.746093 18.746094-49.144531 18.746094-67.890624 0zm0 0"/></g><path d="m336.5 8c0-4.417969-3.582031-8-8-8h-32c-4.417969 0-8 3.582031-8 8v24h48zm0 0" fill="#d1d3d4"/><path d="m392.5 56c4.417969 0 8-3.582031 8-8v-8c0-4.417969-3.582031-8-8-8h-384c-4.417969 0-8 3.582031-8 8v8c0 4.417969 3.582031 8 8 8zm0 0" fill="#ff9811"/><path d="m8.5 440c-4.417969 0-8 3.582031-8 8v8c0 4.417969 3.582031 8 8 8h384c4.417969 0 8-3.582031 8-8v-8c0-4.417969-3.582031-8-8-8zm0 0" fill="#ff9811"/><path d="m32.5 56h336v16h-336zm0 0" fill="#ffa733"/></svg>