<svg height="464pt" viewBox="0 -40 464 464" width="464pt" xmlns="http://www.w3.org/2000/svg"><path d="m112 296h16v64h-16zm0 0" fill="#57565c"/><path d="m336 296h16v64h-16zm0 0" fill="#57565c"/><path d="m464 144v48c0 61.855469-50.144531 112-112 112h-240c-10.503906.019531-20.957031-1.460938-31.039062-4.398438-47.941407-13.828124-80.95703175-57.707031-80.960938-107.601562v-48c0-61.855469 50.144531-112 112-112h240c2.71875 0 5.359375.078125 8 .238281 7.386719.578125 14.699219 1.863281 21.839844 3.839844 48.53125 13.417969 82.144531 57.570313 82.160156 107.921875zm0 0" fill="#ffb655"/><path d="m464 144v48c0 61.855469-50.144531 112-112 112h-240c-10.503906.019531-20.957031-1.460938-31.039062-4.398438 100.960937-50.082031 227.679687-134.242187 300.878906-263.523437 48.53125 13.417969 82.144531 57.570313 82.160156 107.921875zm0 0" fill="#ffa733"/><path d="m112 0h64v32h-64zm0 0" fill="#d1d3d4"/><path d="m104 184c0 22.089844 17.910156 40 40 40s40-17.910156 40-40-40-72-40-72-40 49.910156-40 72zm0 0" fill="#e6e7e8"/><path d="m0 352v32h464v-32zm0 0" fill="#787680"/><path d="m352 32h-8v24h-64v-24h-16v224c0 4.417969 3.582031 8 8 8h80c4.417969 0 8-3.582031 8-8v-223.761719c-2.640625-.160156-5.28125-.238281-8-.238281zm-8 40v16h-64v-16zm-64 112v-16h64v16zm64 16v16h-64v-16zm-64-48v-16h64v16zm0-32v-16h64v16zm0 128v-16h64v16zm0 0" fill="#cc7400"/></svg>