<svg height="472pt" viewBox="0 -4 472.55607 472" width="472pt" xmlns="http://www.w3.org/2000/svg"><path d="m472.554688 48.277344v368c0 26.511718-21.488282 48-48 48h-368c-4.382813.007812-8.75-.613282-12.957032-1.839844-20.699218-5.804688-35.015625-24.664062-35.042968-46.160156v-224l112-112h144l52.800781-48 35.199219-32h72c22.347656.03125 41.730468 15.4375 46.800781 37.199218.8125 3.542969 1.214843 7.167969 1.199219 10.800782zm0 0" fill="#78b9eb"/><path d="m472.554688 48.277344v368c0 26.511718-21.488282 48-48 48h-368c-4.382813.007812-8.75-.613282-12.957032-1.839844 126.316406-49.839844 373.039063-177.121094 427.757813-424.960938.8125 3.542969 1.214843 7.167969 1.199219 10.800782zm0 0" fill="#5aaae7"/><path d="m184.554688 40.277344c0-4.417969 3.582031-8 8-8h124.800781l35.199219-32h-168c-17.671876 0-32 14.328125-32 32v48h32zm0 0" fill="#787680"/><path d="m0 142.914062 79.203125-79.203124 28.957031 28.960937-79.203125 79.199219zm0 0" fill="#898890"/><path d="m152.554688 184.277344h192v192h-192zm0 0" fill="#ffb655"/><path d="m208.554688 296.277344c0 22.09375 17.910156 40 40 40 22.09375 0 40-17.90625 40-40 0-22.085938-40-72-40-72s-40 49.914062-40 72zm0 0" fill="#e6e7e8"/><path d="m352.554688 187.589844 45.65625-45.65625-11.3125-11.3125-45.65625 45.65625h-185.375l-45.65625-45.65625-11.3125 11.3125 45.65625 45.65625v185.375l-45.65625 45.65625 11.3125 11.3125 45.65625-45.65625h185.375l45.65625 45.65625 11.3125-11.3125-45.65625-45.65625zm-16 180.6875h-176v-176h176zm0 0" fill="#1e81ce"/></svg>