<svg height="464pt" viewBox="0 -96 464 464" width="464pt" xmlns="http://www.w3.org/2000/svg"><g fill="#898890"><path d="m16 0c-8.835938 0-16 7.164062-16 16v160c0 8.835938 7.164062 16 16 16s16-7.164062 16-16v-160c0-8.835938-7.164062-16-16-16zm0 0"/><path d="m232 0c-8.835938 0-16 7.164062-16 16v160c0 8.835938 7.164062 16 16 16s16-7.164062 16-16v-160c0-8.835938-7.164062-16-16-16zm0 0"/><path d="m448 0c-8.835938 0-16 7.164062-16 16v160c0 8.835938 7.164062 16 16 16s16-7.164062 16-16v-160c0-8.835938-7.164062-16-16-16zm0 0"/></g><path d="m32 16h184v160h-184zm0 0" fill="#c6c5ca"/><path d="m248 16h184v160h-184zm0 0" fill="#c6c5ca"/><path d="m152 272h-48l13.359375-80 2.640625-16h16l2.640625 16zm0 0" fill="#787680"/><path d="m432 24.238281v151.761719h-126.160156c50.667968-42.753906 93.378906-94.132812 126.160156-151.761719zm0 0" fill="#acabb1"/><path d="m216 24.238281v151.761719h-126.160156c50.667968-42.753906 93.378906-94.132812 126.160156-151.761719zm0 0" fill="#acabb1"/><path d="m368 272h-48l13.359375-80 2.640625-16h16l2.640625 16zm0 0" fill="#787680"/><path d="m138.640625 192h-21.28125l2.640625-16h16zm0 0" fill="#57565c"/><path d="m354.640625 192h-21.28125l2.640625-16h16zm0 0" fill="#57565c"/></svg>