<svg height="464pt" viewBox="-56 0 464 464" width="464pt" xmlns="http://www.w3.org/2000/svg"><path d="m352 96v336c0 17.671875-14.328125 32-32 32h-288c-17.65625-.042969-31.9570312-14.34375-32-32v-400c0-17.671875 14.328125-32 32-32h224v80c.027344 8.824219 7.175781 15.972656 16 16zm0 0" fill="#96c8ef"/><path d="m352 128.71875v303.28125c0 17.671875-14.328125 32-32 32h-288c-13.65625-.007812-25.800781-8.683594-30.238281-21.601562 113.039062-51.359376 274.796875-149.679688 350.238281-313.679688zm0 0" fill="#78b9eb"/><path d="m256 80c0 8.835938 7.164062 16 16 16h80l-96-96zm0 0" fill="#3d9ae2"/><path d="m262.480469 248c-2.246094 12.136719-7.015625 23.664062-14 33.839844l23.679687 23.679687-22.640625 22.640625-23.679687-23.679687c-10.175782 6.984375-21.703125 11.753906-33.839844 14v33.519531h-32v-33.519531c-12.136719-2.246094-23.664062-7.015625-33.839844-14l-23.679687 23.679687-22.640625-22.640625 23.679687-23.679687c-6.984375-10.175782-11.753906-21.703125-14-33.839844h-33.519531v-32h33.519531c2.246094-12.136719 7.015625-23.664062 14-33.839844l-23.679687-23.679687 22.640625-22.640625 23.679687 23.679687c10.175782-6.984375 21.703125-11.753906 33.839844-14v-33.519531h32v33.519531c12.136719 2.246094 23.664062 7.015625 33.839844 14l23.679687-23.679687 22.640625 22.640625-23.679687 23.679687c6.984375 10.175782 11.753906 21.703125 14 33.839844h33.519531v32zm0 0" fill="#ffa733"/><path d="m232 232c0 30.929688-25.070312 56-56 56s-56-25.070312-56-56 25.070312-56 56-56 56 25.070312 56 56zm0 0" fill="#e6e7e8"/><path d="m192 232c0 8.835938-7.164062 16-16 16s-16-7.164062-16-16 7.164062-16 16-16 16 7.164062 16 16zm0 0" fill="#ff6243"/><g fill="#e6e7e8"><path d="m48 40h32v16h-32zm0 0"/><path d="m96 40h48v16h-48zm0 0"/><path d="m48 72h96v16h-96zm0 0"/><path d="m208 376h16v16h-16zm0 0"/><path d="m240 376h64v16h-64zm0 0"/><path d="m208 408h96v16h-96zm0 0"/></g></svg>