<svg height="464pt" viewBox="0 -100 464 464" width="464pt" xmlns="http://www.w3.org/2000/svg"><path d="m464 216c0 26.507812-21.492188 48-48 48h-368c-26.507812 0-48-21.492188-48-48 .0976562-26.46875 21.53125-47.902344 48-48h368c26.46875.097656 47.902344 21.53125 48 48zm0 0" fill="#78b9eb"/><g fill="#ffde55"><path d="m256 216c0 13.253906-10.746094 24-24 24s-24-10.746094-24-24 10.746094-24 24-24 24 10.746094 24 24zm0 0"/><path d="m176 216c0 13.253906-10.746094 24-24 24s-24-10.746094-24-24 10.746094-24 24-24 24 10.746094 24 24zm0 0"/><path d="m96 216c0 13.253906-10.746094 24-24 24s-24-10.746094-24-24 10.746094-24 24-24 24 10.746094 24 24zm0 0"/><path d="m336 216c0 13.253906-10.746094 24-24 24s-24-10.746094-24-24 10.746094-24 24-24 24 10.746094 24 24zm0 0"/><path d="m416 216c0 13.253906-10.746094 24-24 24s-24-10.746094-24-24 10.746094-24 24-24 24 10.746094 24 24zm0 0"/></g><path d="m56 0h160v112h-160zm0 0" fill="#ffb655"/><path d="m56 112h160v32h-160zm0 0" fill="#d1d3d4"/><path d="m248 0h160v112h-160zm0 0" fill="#ffb655"/><path d="m248 112h160v32h-160zm0 0" fill="#d1d3d4"/><path d="m112 0h48v48h-48zm0 0" fill="#ff6243"/><path d="m304 0h48v48h-48zm0 0" fill="#ff6243"/><path d="m408 0v112h-108.238281c36.113281-33.089844 67.765625-70.738281 94.160156-112zm0 0" fill="#ffa733"/><path d="m216 0v112h-108.238281c36.113281-33.089844 67.765625-70.738281 94.160156-112zm0 0" fill="#ffa733"/><path d="m408 112v32h-145.28125c12.5625-10.078125 24.960938-20.800781 37.042969-32zm0 0" fill="#bcbec0"/><path d="m216 112v32h-145.28125c12.5625-10.078125 24.960938-20.800781 37.042969-32zm0 0" fill="#bcbec0"/><path d="m451.679688 184h-439.359376c9.050782-10.199219 22.042969-16.027344 35.679688-16h368c13.636719-.027344 26.628906 5.800781 35.679688 16zm0 0" fill="#5aaae7"/></svg>