<svg height="464pt" viewBox="0 -8 464.00063 464" width="464pt" xmlns="http://www.w3.org/2000/svg"><path d="m153.839844 152h140.242187c-3.839843-4.238281-3.761719-27.757812.078125-32h-140.320312c3.839844 4.242188 3.839844 27.761719 0 32zm0 0" fill="#3d9ae2"/><path d="m0 0v112h112v-112zm0 0" fill="#787680"/><path d="m294.082031 152c.636719.640625 1.277344 1.28125 1.917969 1.839844 7.046875 6.304687 17.140625 7.882812 25.777344 4.03125 8.632812-3.851563 14.203125-12.414063 14.222656-21.871094 0-13.253906-10.746094-24-24-24-9.46875-.011719-18.0625 5.546875-21.933594 14.1875-3.871094 8.644531-2.300781 18.753906 4.015625 25.8125zm0 0" fill="#ee8700"/><path d="m296 153.839844v70.160156h32v-70.160156c-9.085938 8.214844-22.914062 8.214844-32 0zm0 0" fill="#3d9ae2"/><path d="m64.320312 86.878906 25.039063 25.121094 22.722656 22.71875c.574219-12.253906 10.382813-22.0625 22.636719-22.636719l-22.71875-22.722656-25.121094-25.039063c-5.339844 9.421876-13.136718 17.21875-22.558594 22.558594zm0 0" fill="#3d9ae2"/><path d="m464 408c0 22.089844-17.910156 40-40 40h-384c-22.089844 0-40-17.910156-40-40-.0351562-8.660156 2.777344-17.09375 8-24 7.5625-10.0625 19.414062-15.988281 32-16h384c12.585938.011719 24.4375 5.9375 32 16 5.222656 6.90625 8.035156 15.339844 8 24zm0 0" fill="#acabb1"/><g fill="#ffde55"><path d="m216 408c0 8.835938-7.164062 16-16 16s-16-7.164062-16-16 7.164062-16 16-16 16 7.164062 16 16zm0 0"/><path d="m152 408c0 8.835938-7.164062 16-16 16s-16-7.164062-16-16 7.164062-16 16-16 16 7.164062 16 16zm0 0"/><path d="m88 408c0 8.835938-7.164062 16-16 16s-16-7.164062-16-16 7.164062-16 16-16 16 7.164062 16 16zm0 0"/><path d="m280 408c0 8.835938-7.164062 16-16 16s-16-7.164062-16-16 7.164062-16 16-16 16 7.164062 16 16zm0 0"/><path d="m344 408c0 8.835938-7.164062 16-16 16s-16-7.164062-16-16 7.164062-16 16-16 16 7.164062 16 16zm0 0"/><path d="m408 408c0 8.835938-7.164062 16-16 16s-16-7.164062-16-16 7.164062-16 16-16 16 7.164062 16 16zm0 0"/></g><path d="m456 384h-448c7.5625-10.0625 19.414062-15.988281 32-16h384c12.585938.011719 24.4375 5.9375 32 16zm0 0" fill="#898890"/><path d="m349.65625 266.34375-24-24c-1.5-1.5-3.535156-2.34375-5.65625-2.34375v-16h-16v16c-1.578125.003906-3.125.46875-4.441406 1.34375l-24 16c-2.222656 1.484375-3.558594 3.980469-3.558594 6.65625v32c0 2.121094.84375 4.15625 2.34375 5.65625l16 16 11.3125-11.3125-13.65625-13.65625v-24.40625l18.398438-12.28125h10.265624l19.335938 19.3125v17.375l-13.65625 13.65625 11.3125 11.3125 16-16c1.5-1.5 2.34375-3.535156 2.34375-5.65625v-24c0-2.121094-.84375-4.15625-2.34375-5.65625zm0 0" fill="#57565c"/><path d="m160 136c0 13.253906-10.746094 24-24 24s-24-10.746094-24-24 10.746094-24 24-24 24 10.746094 24 24zm0 0" fill="#ee8700"/><path d="m86.878906 64.320312c.601563-2.167968.949219-4.394531 1.042969-6.640624.066406-.554688.09375-1.117188.078125-1.679688 0-17.671875-14.328125-32-32-32s-32 14.328125-32 32c-.015625.5625.011719 1.125.082031 1.679688.824219 16.347656 13.890625 29.414062 30.238281 30.242187 1.117188.105469 2.242188.105469 3.359376 0 2.242187-.132813 4.464843-.480469 6.640624-1.042969 5.980469-1.5625 11.355469-4.878906 15.441407-9.519531 3.40625-3.695313 5.851562-8.175781 7.117187-13.039063zm0 0" fill="#ee8700"/><path d="m144 136c0 4.417969-3.582031 8-8 8s-8-3.582031-8-8 3.582031-8 8-8 8 3.582031 8 8zm0 0" fill="#57565c"/><path d="m64 56c0 4.417969-3.582031 8-8 8s-8-3.582031-8-8 3.582031-8 8-8 8 3.582031 8 8zm0 0" fill="#57565c"/><path d="m320 136c0 4.417969-3.582031 8-8 8s-8-3.582031-8-8 3.582031-8 8-8 8 3.582031 8 8zm0 0" fill="#57565c"/></svg>