<svg height="464pt" viewBox="0 -32 464.00031 464" width="464pt" xmlns="http://www.w3.org/2000/svg"><path d="m137.28125 47.921875 83.597656 83.597656 22.640625-22.640625-83.597656-83.597656c-.21875 5.472656-2.375 10.6875-6.082031 14.71875-4.210938 4.785156-10.191406 7.648438-16.558594 7.921875zm0 0" fill="#5aaae7"/><path d="m0 320h96v80h-96zm0 0" fill="#787680"/><path d="m464 360c0 22.089844-17.910156 40-40 40h-328v-80h328c12.585938.011719 24.4375 5.9375 32 16 5.222656 6.90625 8.035156 15.339844 8 24zm0 0" fill="#acabb1"/><g fill="#ffde55"><path d="m232 360c0 8.835938-7.164062 16-16 16s-16-7.164062-16-16 7.164062-16 16-16 16 7.164062 16 16zm0 0"/><path d="m168 360c0 8.835938-7.164062 16-16 16s-16-7.164062-16-16 7.164062-16 16-16 16 7.164062 16 16zm0 0"/><path d="m296 360c0 8.835938-7.164062 16-16 16s-16-7.164062-16-16 7.164062-16 16-16 16 7.164062 16 16zm0 0"/><path d="m360 360c0 8.835938-7.164062 16-16 16s-16-7.164062-16-16 7.164062-16 16-16 16 7.164062 16 16zm0 0"/><path d="m424 360c0 8.835938-7.164062 16-16 16s-16-7.164062-16-16 7.164062-16 16-16 16 7.164062 16 16zm0 0"/></g><path d="m64 129.839844c5.128906-4.503906 8.046875-11.015625 8-17.839844.011719-.453125-.011719-.910156-.078125-1.359375-.660156-12.179687-10.382813-21.902344-22.5625-22.558594-.449219-.070312-.90625-.09375-1.359375-.082031-13.253906 0-24 10.746094-24 24 .019531 9.457031 5.589844 18.019531 14.222656 21.871094 8.636719 3.851562 18.730469 2.273437 25.777344-4.03125zm0 0" fill="#ee8700"/><path d="m71.921875 110.640625 62.796875-62.71875c-12.253906-.578125-22.0625-10.386719-22.640625-22.640625l-62.71875 62.800781c12.179687.65625 21.902344 10.378907 22.5625 22.558594zm0 0" fill="#5aaae7"/><path d="m64 129.839844c-9.085938 8.214844-22.914062 8.214844-32 0v158.160156h32zm0 0" fill="#5aaae7"/><path d="m88 320c0 22.089844-17.910156 40-40 40s-40-17.910156-40-40 17.910156-40 40-40 40 17.910156 40 40zm0 0" fill="#ee8700"/><path d="m456 336h-360v-16h328c12.585938.011719 24.4375 5.9375 32 16zm0 0" fill="#898890"/><path d="m311.359375 142.800781-16.960937-16.976562c-1.5-1.5-3.53125-2.34375-5.65625-2.34375h-33.941407c-2.121093 0-4.15625.84375-5.65625 2.34375l-11.3125-11.320313-11.320312 11.320313 11.320312 11.3125c-1.117187 1.113281-1.878906 2.53125-2.191406 4.078125l-5.65625 28.28125c-.515625 2.617187.308594 5.316406 2.191406 7.199218l22.625 22.664063c1.5 1.5 3.535157 2.34375 5.65625 2.34375h22.621094v-16h-19.308594l-17.265625-17.253906 4.335938-21.703125 7.273437-7.265625h27.3125l12.277344 12.289062v19.3125h16v-22.625c0-2.121093-.84375-4.15625-2.34375-5.65625zm0 0" fill="#57565c"/><path d="m160 24c0 13.253906-10.746094 24-24 24s-24-10.746094-24-24 10.746094-24 24-24 24 10.746094 24 24zm0 0" fill="#ee8700"/><path d="m144 24c0 4.417969-3.582031 8-8 8s-8-3.582031-8-8 3.582031-8 8-8 8 3.582031 8 8zm0 0" fill="#57565c"/><path d="m56 112c0 4.417969-3.582031 8-8 8s-8-3.582031-8-8 3.582031-8 8-8 8 3.582031 8 8zm0 0" fill="#57565c"/><path d="m56 320c0 4.417969-3.582031 8-8 8s-8-3.582031-8-8 3.582031-8 8-8 8 3.582031 8 8zm0 0" fill="#57565c"/></svg>