<svg height="472pt" viewBox="0 0 472 472" width="472pt" xmlns="http://www.w3.org/2000/svg"><path d="m432 96c0 30.929688-25.070312 56-56 56s-56-25.070312-56-56 25.070312-56 56-56 56 25.070312 56 56zm0 0" fill="#ff5023"/><path d="m0 200h304v192h-304zm0 0" fill="#c6c5ca"/><path d="m32 232h64v48h-64zm0 0" fill="#787680"/><path d="m120 232h64v48h-64zm0 0" fill="#787680"/><path d="m32 312h64v48h-64zm0 0" fill="#787680"/><path d="m24 392h32v80h-32zm0 0" fill="#57565c"/><path d="m248 392h32v80h-32zm0 0" fill="#57565c"/><path d="m304 200v192h-229.839844c75.519532-45.039062 155.519532-107.839844 213.28125-192zm0 0" fill="#acacb0"/><path d="m24 392h32v16h-32zm0 0" fill="#3e3d42"/><path d="m248 392h32v16h-32zm0 0" fill="#3e3d42"/><path d="m208 232h64v48h-64zm0 0" fill="#787680"/><path d="m120 312h64v48h-64zm0 0" fill="#787680"/><path d="m208 312h64v48h-64zm0 0" fill="#787680"/><g fill="#ff5023"><path d="m368 0h16v16h-16zm0 0"/><path d="m302.464844 33.777344 11.3125-11.3125 11.3125 11.3125-11.3125 11.3125zm0 0"/><path d="m280 88h16v16h-16zm0 0"/><path d="m302.460938 158.222656 11.3125-11.3125 11.316406 11.3125-11.316406 11.3125zm0 0"/><path d="m368 176h16v16h-16zm0 0"/><path d="m426.90625 158.226562 11.3125-11.316406 11.316406 11.316406-11.316406 11.3125zm0 0"/><path d="m456 88h16v16h-16zm0 0"/><path d="m426.910156 33.777344 11.3125-11.3125 11.3125 11.3125-11.3125 11.316406zm0 0"/></g><path d="m168 80h-20.6875l26.34375-26.34375-11.3125-11.3125-40 40c-2.285156 2.289062-2.972656 5.730469-1.734375 8.71875s4.15625 4.9375 7.390625 4.9375h20.6875l-28.6875 28.6875v-12.6875h-16v32c0 4.417969 3.582031 8 8 8h32v-16h-12.6875l42.34375-42.34375c2.285156-2.289062 2.972656-5.730469 1.734375-8.71875s-4.15625-4.9375-7.390625-4.9375zm0 0" fill="#ff9811"/><path d="m255.390625 108.9375c-1.238281-2.988281-4.15625-4.9375-7.390625-4.9375h-20.6875l26.34375-26.34375-11.3125-11.3125-40 40c-2.285156 2.289062-2.972656 5.730469-1.734375 8.71875s4.15625 4.9375 7.390625 4.9375h20.6875l-28.6875 28.6875v-12.6875h-16v32c0 4.417969 3.582031 8 8 8h32v-16h-12.6875l42.34375-42.34375c2.289062-2.289062 2.972656-5.730469 1.734375-8.71875zm0 0" fill="#ff9811"/></svg>