<svg height="464pt" viewBox="-80 0 464 464" width="464pt" xmlns="http://www.w3.org/2000/svg"><path d="m16 80h272c8.835938 0 16 7.164062 16 16v352c0 8.835938-7.164062 16-16 16h-272c-8.835938 0-16-7.164062-16-16v-352c0-8.835938 7.164062-16 16-16zm0 0" fill="#acabb1"/><path d="m304 97.121094v350.878906c-.027344 8.824219-7.175781 15.972656-16 16h-272c-8.824219-.027344-15.9726562-7.175781-16-16v-28.558594c113.921875-61.601562 248.640625-164.480468 304-322.320312zm0 0" fill="#898890"/><path d="m216 184c0 35.347656-28.652344 64-64 64s-64-28.652344-64-64 28.652344-64 64-64 64 28.652344 64 64zm0 0" fill="#ffa733"/><path d="m216 360c0 35.347656-28.652344 64-64 64s-64-28.652344-64-64 28.652344-64 64-64 64 28.652344 64 64zm0 0" fill="#d8d7da"/><path d="m192 360c0 22.089844-17.910156 40-40 40s-40-17.910156-40-40 17.910156-40 40-40 40 17.910156 40 40zm0 0" fill="#ff5023"/><path d="m152 224c8.835938 0 16-7.164062 16-16v-48c0-8.835938-7.164062-16-16-16s-16 7.164062-16 16v48c0 8.835938 7.164062 16 16 16zm0 0" fill="#ff6243"/><path d="m88 48v32h128v-32zm0 0" fill="#787680"/><path d="m112 0h80v48h-80zm0 0" fill="#acabb1"/></svg>