<svg height="464pt" viewBox="0 -80 464.00001 464" width="464pt" xmlns="http://www.w3.org/2000/svg"><path d="m224 168h16v48h-16zm0 0" fill="#57565c"/><path d="m368 168h16v48h-16zm0 0" fill="#57565c"/><path d="m48 112v80h-48v64h112v-144zm0 0" fill="#ff7956"/><path d="m112 208v48h352v-48zm0 0" fill="#ff6243"/><path d="m56 240c-14.53125-.035156-27.273438 9.699219-31.054688 23.730469s2.339844 28.851562 14.921876 36.125c12.582031 7.269531 28.476562 5.179687 38.75-5.101563 10.269531-10.28125 12.347656-26.179687 5.0625-38.753906-5.6875-9.914062-16.25-16.019531-27.679688-16zm0 0" fill="#787680"/><path d="m408 240c-14.53125-.035156-27.273438 9.699219-31.054688 23.730469s2.339844 28.851562 14.921876 36.125c12.582031 7.269531 28.476562 5.179687 38.75-5.101563 10.269531-10.28125 12.347656-26.179687 5.0625-38.753906-5.6875-9.914062-16.25-16.019531-27.679688-16zm0 0" fill="#787680"/><path d="m320 240c-14.53125-.035156-27.273438 9.699219-31.054688 23.730469s2.339844 28.851562 14.921876 36.125c12.582031 7.269531 28.476562 5.179687 38.75-5.101563 10.269531-10.28125 12.347656-26.179687 5.0625-38.753906-5.6875-9.914062-16.25-16.019531-27.679688-16zm0 0" fill="#787680"/><path d="m48 176v-64h-16l-32 64v16h48zm0 0" fill="#e6e7e8"/><path d="m216 0h48v32h-48zm0 0" fill="#d1d3d4"/><path d="m464 96v16c0 35.347656-28.652344 64-64 64h-192c-35.347656 0-64-28.652344-64-64v-16c0-35.347656 28.652344-64 64-64h192c.773438-.011719 1.546875.011719 2.320312.078125 34.421876 1.214844 61.695313 29.476563 61.679688 63.921875zm0 0" fill="#ffb655"/><path d="m464 96v16c0 35.347656-28.652344 64-64 64h-173.839844c65.945313-38.378906 125.402344-86.953125 176.160156-143.921875 34.421876 1.214844 61.695313 29.476563 61.679688 63.921875zm0 0" fill="#ffa733"/><path d="m0 208h32v16h-32zm0 0" fill="#e6e7e8"/><path d="m376 32v32h-32v-32h-16v120c0 4.417969 3.582031 8 8 8h48c4.417969 0 8-3.582031 8-8v-120zm0 112h-32v-24h32zm0-40h-32v-24h32zm0 0" fill="#ee8700"/><g fill="#57565c"><path d="m64 272c0 4.417969-3.582031 8-8 8s-8-3.582031-8-8 3.582031-8 8-8 8 3.582031 8 8zm0 0"/><path d="m328 272c0 4.417969-3.582031 8-8 8s-8-3.582031-8-8 3.582031-8 8-8 8 3.582031 8 8zm0 0"/><path d="m416 272c0 4.417969-3.582031 8-8 8s-8-3.582031-8-8 3.582031-8 8-8 8 3.582031 8 8zm0 0"/></g></svg>