<svg height="480pt" viewBox="0 -40 480 480" width="480pt" xmlns="http://www.w3.org/2000/svg"><path d="m400 79.96875-72-72h-320v48h320l72 72h72v-48zm0 0" fill="#ffc477"/><path d="m472 71.96875h-68.6875l-69.648438-69.648438c-.664062-.640624-1.4375-1.160156-2.28125-1.535156-.226562-.097656-.457031-.179687-.695312-.25-.710938-.253906-1.460938-.40625-2.214844-.4453122-.152344 0-.28125-.0898438-.433594-.0898438h-320.039062c-4.417969 0-8 3.582031-8 8v48c0 4.417969 3.582031 8 8 8h8v103.96875c0 4.417969 3.582031 8 8 8h80c4.417969 0 8-3.582031 8-8v-104h32v56c0 4.417969 3.582031 8 8 8h152c4.417969 0 8-3.582031 8-8v-56h12.6875l67.3125 67.3125v60.6875h16v-56h56v264h16v-320c0-4.417969-3.582031-8-8-8zm-8 41.054688-13.601562-9.054688 13.601562-9.058594zm-42.398438-9.054688-13.601562 9.054688v-18.113282zm4.847657-16h19.152343l-9.601562 6.398438zm9.597656 25.597656 9.601563 6.402344h-19.25zm-116.046875-65.597656h-14.617188l-45.335937-16 45.335937-16h14.617188zm-216 0h-41.488281l25.488281-7.648438 25.488281 7.648438zm110.710938-32h42.578124l-21.289062 7.511719zm-2.757813 16-44.152344 15.582031-51.960937-15.582031 52-15.585938zm-123.953125-8.351562-25.488281-7.648438h50.976562zm-27.839844 8.351562-44.160156 13.246094v-26.496094zm175.839844 8.488281 21.289062 7.511719h-42.578124zm-140 119.511719h-64v-96h64zm200-48h-136v-48h136zm40-84.6875 56 56v25.375l-56-56zm0 0" fill="#57565c"/><path d="m8 319.96875h128v72h-128zm0 0" fill="#e6e7e8"/><path d="m136 199.96875v-48h-128v72h128zm0 0" fill="#e6e7e8"/><path d="m136 103.96875v96h176v-96zm0 0" fill="#a7a9ac"/><path d="m312 295.96875h-176v96h176zm0 0" fill="#a7a9ac"/><path d="m312 199.96875v56h112v-72h-112zm0 0" fill="#bcbec0"/><path d="m312 319.96875h112v72h-112zm0 0" fill="#d1d3d4"/><path d="m136 295.96875v-72h-128v96h128zm0 0" fill="#bcbec0"/><path d="m136 223.96875v72h176v-96h-176zm0 0" fill="#d1d3d4"/><path d="m312 295.96875v24h112v-64h-112zm0 0" fill="#bcbec0"/><path d="m120 151.96875h16v72h-16zm0 0" fill="#d1d3d4"/><path d="m120 223.96875h16v96h-16zm0 0" fill="#a7a9ac"/><path d="m120 319.96875h16v72h-16zm0 0" fill="#d1d3d4"/><path d="m312 183.96875h16v72h-16zm0 0" fill="#a7a9ac"/><path d="m312 255.96875h16v64h-16zm0 0" fill="#a7a9ac"/><path d="m312 319.96875h16v72h-16zm0 0" fill="#bcbec0"/></svg>