<svg height="464pt" viewBox="0 -76 464 464" width="464pt" xmlns="http://www.w3.org/2000/svg"><path d="m48 120v80h-48v64h112v-144zm0 0" fill="#ff7956"/><path d="m112 216v48h352v-48zm0 0" fill="#ff6243"/><path d="m184 48h280v144h-280zm0 0" fill="#ffb655"/><path d="m464 48v144h-251.441406c68.09375-38.105469 129.753906-86.703125 182.722656-144zm0 0" fill="#ffa733"/><path d="m56 248c-14.53125-.035156-27.273438 9.699219-31.054688 23.730469s2.339844 28.851562 14.921876 36.125c12.582031 7.269531 28.476562 5.179687 38.75-5.101563 10.269531-10.28125 12.347656-26.179687 5.0625-38.753906-5.6875-9.914062-16.25-16.019531-27.679688-16zm0 0" fill="#787680"/><path d="m408 248c-14.53125-.035156-27.273438 9.699219-31.054688 23.730469s2.339844 28.851562 14.921876 36.125c12.582031 7.269531 28.476562 5.179687 38.75-5.101563 10.269531-10.28125 12.347656-26.179687 5.0625-38.753906-5.6875-9.914062-16.25-16.019531-27.679688-16zm0 0" fill="#787680"/><path d="m320 248c-14.53125-.035156-27.273438 9.699219-31.054688 23.730469s2.339844 28.851562 14.921876 36.125c12.582031 7.269531 28.476562 5.179687 38.75-5.101563 10.269531-10.28125 12.347656-26.179687 5.0625-38.753906-5.6875-9.914062-16.25-16.019531-27.679688-16zm0 0" fill="#787680"/><path d="m48 184v-64h-16l-32 64v16h48zm0 0" fill="#e6e7e8"/><path d="m144 216v-176h-32v176zm0 0" fill="#d1d3d4"/><path d="m0 216h32v16h-32zm0 0" fill="#e6e7e8"/><g fill="#cc7400"><path d="m336 72h16v96h-16zm0 0"/><path d="m376 72h16v96h-16zm0 0"/><path d="m416 72h16v96h-16zm0 0"/><path d="m296 72h16v96h-16zm0 0"/><path d="m256 72h16v96h-16zm0 0"/><path d="m216 72h16v96h-16zm0 0"/></g><path d="m136 40h-16v-32c0-4.417969 3.582031-8 8-8h16v16h-8zm0 0" fill="#57565c"/><path d="m64 280c0 4.417969-3.582031 8-8 8s-8-3.582031-8-8 3.582031-8 8-8 8 3.582031 8 8zm0 0" fill="#57565c"/><path d="m328 280c0 4.417969-3.582031 8-8 8s-8-3.582031-8-8 3.582031-8 8-8 8 3.582031 8 8zm0 0" fill="#57565c"/><path d="m416 280c0 4.417969-3.582031 8-8 8s-8-3.582031-8-8 3.582031-8 8-8 8 3.582031 8 8zm0 0" fill="#57565c"/></svg>