<svg height="464pt" viewBox="-24 0 464 464" width="464pt" xmlns="http://www.w3.org/2000/svg"><path d="m272 464h-64l3.679688-47.601562 4.480468-58.320313 3.039063-39.917969 4.800781-62.160156h32l4.800781 62.238281 1.121094 14.882813 1.917969 25.039062zm0 0" fill="#787680"/><path d="m272 464h-64l3.679688-47.601562c19.449218-26.035157 36.277343-53.929688 50.242187-83.277344l1.917969 25.039062zm0 0" fill="#57565c"/><path d="m272 192c.003906-3.34375-.539062-6.667969-1.601562-9.839844-1.328126-4.285156-3.597657-8.222656-6.636719-11.519531-6.042969-6.769531-14.6875-10.640625-23.761719-10.640625s-17.71875 3.871094-23.761719 10.640625c-3.039062 3.296875-5.308593 7.234375-6.636719 11.519531-1.0625 3.171875-1.605468 6.496094-1.601562 9.839844.011719 15.105469 10.582031 28.144531 25.359375 31.28125 4.375.957031 8.90625.957031 13.28125 0 14.777344-3.136719 25.347656-16.175781 25.359375-31.28125zm0 0" fill="#ff5023"/><path d="m263.761719 170.640625-7.761719-170.640625h-32l-7.761719 170.640625c6.042969-6.769531 14.6875-10.640625 23.761719-10.640625s17.71875 3.871094 23.761719 10.640625zm0 0" fill="#ffa733"/><path d="m272 192c-.011719 15.105469-10.582031 28.144531-25.359375 31.28125l151.597656 78.558594 16-27.679688-143.839843-92c1.0625 3.171875 1.605468 6.496094 1.601562 9.839844zm0 0" fill="#ffa733"/><path d="m208 192c-.003906-3.34375.539062-6.667969 1.601562-9.839844l-88.632812 56.6875-34.167969 21.855469-21.039062 13.457031 16 27.679688 22.238281-11.511719 36-18.640625 93.359375-48.40625c-14.777344-3.136719-25.347656-16.175781-25.359375-31.28125zm0 0" fill="#ffa733"/><path d="m96 88h-96v-16h96c8.835938 0 16-7.164062 16-16s-7.164062-16-16-16-16 7.164062-16 16h-16c0-17.671875 14.328125-32 32-32s32 14.328125 32 32-14.328125 32-32 32zm0 0" fill="#3d9ae2"/><path d="m160 136h-96v-16h96c8.835938 0 16-7.164062 16-16s-7.164062-16-16-16-16 7.164062-16 16h-16c0-17.671875 14.328125-32 32-32s32 14.328125 32 32-14.328125 32-32 32zm0 0" fill="#3d9ae2"/><path d="m32 120h16v16h-16zm0 0" fill="#3d9ae2"/><g fill="#ff7956"><path d="m240 328c-75.074219-.082031-135.917969-60.925781-136-136h16c.074219 66.242188 53.757812 119.925781 120 120 27.242188.105469 53.691406-9.164062 74.910156-26.246094l10 12.484375c-24.121094 19.242188-54.054687 29.734375-84.910156 29.761719zm0 0"/><path d="m375.726562 200.65625-16-1.015625c.160157-2.527344.242188-5.082031.242188-7.640625.191406-45.988281-26.074219-87.988281-67.503906-107.945312l7-14.398438c46.972656 22.605469 76.753906 70.214844 76.535156 122.34375 0 2.902344-.097656 5.792969-.273438 8.65625zm0 0"/><path d="m240 368c-97.15625-.109375-175.890625-78.84375-176-176h16c0 63.015625 36.988281 120.164062 94.476562 145.96875 57.492188 25.804688 124.773438 15.464844 171.859376-26.417969l10.640624 11.953125c-32.210937 28.683594-73.847656 44.519532-116.976562 44.496094zm0 0"/><path d="m415.800781 200.535156-16-.800781c.132813-2.558594.199219-5.136719.199219-7.734375-.277344-70.792969-46.789062-133.085938-114.585938-153.464844l4.53125-15.335937c74.578126 22.410156 125.746094 90.929687 126.054688 168.800781 0 2.863281-.0625 5.703125-.199219 8.535156zm0 0"/></g></svg>